<?xml version="1.0" encoding="UTF-8"?>
<svg id="Layer_1" xmlns="http://www.w3.org/2000/svg" version="1.1" viewBox="0 0 566.93 566.93">
  <!-- Generator: Adobe Illustrator 29.3.1, SVG Export Plug-In . SVG Version: 2.1.0 Build 151)  -->
  <defs>
    <style>
      .st0 {
        font-size: 250px;
      }

      .st0, .st1, .st2, .st3, .st4, .st5 {
        font-family: FilmotypeMaxwell, 'Filmotype Maxwell';
      }

      .st0, .st1, .st2, .st6 {
        fill: #fff;
      }

      .st1 {
        font-size: 120px;
      }

      .st2, .st3 {
        font-size: 150px;
      }

      .st7, .st8, .st9, .st6, .st10, .st11, .st12, .st13, .st14 {
        stroke: #231f20;
        stroke-miterlimit: 10;
      }

      .st7, .st12, .st13, .st14 {
        fill: none;
      }

      .st8, .st3 {
        fill: #8dc63f;
      }

      .st9, .st10, .st11 {
        fill: #231f20;
      }

      .st4 {
        fill: #006838;
        font-size: 308.47px;
      }

      .st5 {
        font-size: 100px;
      }

      .st10 {
        stroke-width: 18px;
      }

      .st11 {
        stroke-width: 5px;
      }

      .st12 {
        stroke-width: 12px;
      }

      .st13 {
        stroke-width: 16px;
      }

      .st14 {
        stroke-width: 10px;
      }
    </style>
  </defs>
  <rect class="st8" x="-1.08" y="0" width="566.93" height="566.93"/>
  <g>
    <circle class="st13" cx="206.35" cy="244.52" r="59.29"/>
    <circle class="st13" cx="404.04" cy="246.55" r="59.29"/>
    <circle class="st10" cx="206.35" cy="246.55" r="7.85"/>
    <circle class="st10" cx="404.04" cy="246.55" r="7.85"/>
    <circle class="st13" cx="305.19" cy="277.46" r="23.06"/>
    <circle class="st11" cx="305.19" cy="277.46" r="6.02"/>
    <line class="st12" x1="206.35" y1="246.55" x2="282.94" y2="271.44"/>
    <path class="st12" d="M401.18,238.7c-5.67-24.04-11.97-50.04-18.94-77.79-9.34-37.17-13.21-50.94-23.68-54.12-14.51-4.4-32.26,14.45-38.56,21.65"/>
    <line class="st12" x1="314.35" y1="256.3" x2="382.24" y2="160.91"/>
    <line class="st12" x1="299.17" y1="254.41" x2="265.64" y2="172.42"/>
    <line class="st12" x1="206.35" y1="238.7" x2="270" y2="183.08"/>
    <line class="st12" x1="270" y1="183.08" x2="380.23" y2="152.93"/>
    <path class="st14" d="M253.72,172.19c2.14-.2,19.45-2.05,23.68-15.56,1.7-5.45,1.57-13.73-3.38-18.26-8.61-7.87-28.76-1.64-34.5,10.82-2.97,6.45-2.98,16.52,2.71,20.97,3.52,2.76,7.94,2.35,11.5,2.03Z"/>
  </g>
  <text class="st0" transform="translate(53.27 320.91)"><tspan x="0" y="0">G</tspan></text>
  <text class="st2" transform="translate(147.06 382.8)"><tspan x="0" y="0">Bike</tspan></text>
  <rect class="st9" x="870.39" y="0" width="566.93" height="566.93"/>
  <text class="st3" transform="translate(942.45 249.19)"><tspan x="0" y="0">G</tspan></text>
  <g>
    <g>
      <circle class="st6" cx="1070.03" cy="201.33" r="46.93"/>
      <circle class="st9" cx="1069.45" cy="201.33" r="7.44"/>
    </g>
    <line class="st7" x1="1069.45" y1="193.89" x2="1070.03" y2="154.4"/>
    <line class="st7" x1="1073.37" y1="196.67" x2="1098.91" y2="163.93"/>
    <line class="st7" x1="1076.88" y1="201.33" x2="1116.96" y2="201.33"/>
    <line class="st7" x1="1074.49" y1="205.99" x2="1103.85" y2="235.35"/>
    <line class="st7" x1="1070.03" y1="248.26" x2="1070.61" y2="208.76"/>
    <line class="st7" x1="1023.1" y1="201.33" x2="1063.18" y2="201.33"/>
    <line class="st7" x1="1037.04" y1="168.54" x2="1066.4" y2="197.9"/>
    <line class="st7" x1="1041.52" y1="237.5" x2="1067.06" y2="204.76"/>
  </g>
  <text class="st3" transform="translate(1171.01 246.5)"><tspan x="0" y="0">G</tspan></text>
  <g>
    <g>
      <circle class="st6" cx="1302.97" cy="201.33" r="46.93"/>
      <circle class="st9" cx="1302.39" cy="201.33" r="7.44"/>
    </g>
    <line class="st7" x1="1302.39" y1="193.89" x2="1302.97" y2="154.4"/>
    <line class="st7" x1="1306.31" y1="196.67" x2="1331.85" y2="163.93"/>
    <line class="st7" x1="1309.83" y1="201.33" x2="1349.9" y2="201.33"/>
    <line class="st7" x1="1307.43" y1="205.99" x2="1336.79" y2="235.35"/>
    <line class="st7" x1="1302.97" y1="248.26" x2="1303.55" y2="208.76"/>
    <line class="st7" x1="1256.04" y1="201.33" x2="1296.12" y2="201.33"/>
    <line class="st7" x1="1269.98" y1="168.54" x2="1299.34" y2="197.9"/>
    <line class="st7" x1="1274.46" y1="237.5" x2="1300" y2="204.76"/>
  </g>
  <text class="st3" transform="translate(1123.17 250.68)"><tspan x="0" y="0">-</tspan></text>
  <text class="st1" transform="translate(1062.01 320.62)"><tspan x="0" y="0">Bike</tspan></text>
  <g>
    <g>
      <ellipse class="st6" cx="2094.52" cy="245.76" rx="117.55" ry="108.87"/>
      <ellipse class="st9" cx="2093.07" cy="245.76" rx="18.63" ry="17.25"/>
    </g>
    <line class="st7" x1="2093.07" y1="228.51" x2="2094.52" y2="136.9"/>
    <line class="st7" x1="2102.89" y1="234.96" x2="2166.86" y2="159.01"/>
    <line class="st7" x1="2111.69" y1="245.76" x2="2212.08" y2="245.76"/>
    <line class="st7" x1="2105.69" y1="256.57" x2="2179.23" y2="324.68"/>
    <line class="st7" x1="2094.52" y1="354.63" x2="2095.98" y2="263.01"/>
    <line class="st7" x1="1976.97" y1="245.76" x2="2077.35" y2="245.76"/>
    <line class="st7" x1="2011.88" y1="169.69" x2="2085.43" y2="237.81"/>
    <line class="st7" x1="2023.11" y1="329.67" x2="2087.08" y2="253.72"/>
  </g>
  <text class="st4" transform="translate(1845.15 390.03) rotate(-15.92) scale(1.39 1)"><tspan x="0" y="0">G</tspan></text>
  <text class="st5" transform="translate(1944.32 363.15) rotate(18.23)"><tspan x="0" y="0">b</tspan></text>
  <text class="st5" transform="translate(2014.16 379.64) rotate(-8.59)"><tspan x="0" y="0">I</tspan></text>
  <text class="st5" transform="translate(2034.3 373.76) rotate(3.37)"><tspan x="0" y="0">k</tspan></text>
  <text class="st5" transform="translate(2093.04 373.69) rotate(-4.14)"><tspan x="0" y="0">e</tspan></text>
</svg>