<?xml version="1.0" encoding="UTF-8"?>
<svg id="Layer_1" xmlns="http://www.w3.org/2000/svg" version="1.1" viewBox="0 0 566.9 566.9">
  <!-- Generator: Adobe Illustrator 29.3.1, SVG Export Plug-In . SVG Version: 2.1.0 Build 151)  -->
  <defs>
    <style>
      .st0 {
        font-size: 100px;
      }

      .st0, .st1, .st2 {
        isolation: isolate;
      }

      .st0, .st2 {
        font-family: FilmotypeMaxwell, 'Filmotype Maxwell';
      }

      .st3 {
        fill: none;
      }

      .st3, .st4, .st5 {
        stroke: #231f20;
        stroke-miterlimit: 10;
      }

      .st4 {
        fill: #231f20;
      }

      .st5 {
        fill: #fff;
      }

      .st2 {
        fill: #006838;
        font-size: 308.5px;
      }
    </style>
  </defs>
  <g>
    <g>
      <ellipse class="st5" cx="2094.5" cy="245.8" rx="117.6" ry="108.9"/>
      <ellipse class="st4" cx="2093.1" cy="245.8" rx="18.6" ry="17.3"/>
    </g>
    <line class="st3" x1="2093.1" y1="228.5" x2="2094.5" y2="136.9"/>
    <line class="st3" x1="2102.9" y1="235" x2="2166.9" y2="159"/>
    <line class="st3" x1="2111.7" y1="245.8" x2="2212.1" y2="245.8"/>
    <line class="st3" x1="2105.7" y1="256.6" x2="2179.2" y2="324.7"/>
    <line class="st3" x1="2094.5" y1="354.6" x2="2096" y2="263"/>
    <line class="st3" x1="1977" y1="245.8" x2="2077.4" y2="245.8"/>
    <line class="st3" x1="2011.9" y1="169.7" x2="2085.4" y2="237.8"/>
    <line class="st3" x1="2023.1" y1="329.7" x2="2087.1" y2="253.7"/>
  </g>
  <g class="st1">
    <text class="st2" transform="translate(1845.2 390) rotate(-15.9) scale(1.4 1)"><tspan x="0" y="0">G</tspan></text>
  </g>
  <g class="st1">
    <text class="st0" transform="translate(1944.3 363.2) rotate(18.2)"><tspan x="0" y="0">b</tspan></text>
  </g>
  <g class="st1">
    <text class="st0" transform="translate(2014.2 379.6) rotate(-8.6)"><tspan x="0" y="0">I</tspan></text>
  </g>
  <g class="st1">
    <text class="st0" transform="translate(2034.3 373.8) rotate(3.4)"><tspan x="0" y="0">k</tspan></text>
  </g>
  <g class="st1">
    <text class="st0" transform="translate(2093 373.7) rotate(-4.1)"><tspan x="0" y="0">e</tspan></text>
  </g>
</svg>