<?xml version="1.0" encoding="UTF-8"?>
<svg id="Layer_1" xmlns="http://www.w3.org/2000/svg" version="1.1" viewBox="0 0 566.93 566.93">
  <!-- Generator: Adobe Illustrator 29.3.1, SVG Export Plug-In . SVG Version: 2.1.0 Build 151)  -->
  <defs>
    <style>
      .st0 {
        font-size: 100px;
      }

      .st0, .st1, .st2 {
        isolation: isolate;
      }

      .st0, .st2 {
        font-family: FilmotypeMaxwell, 'Filmotype Maxwell';
      }

      .st3 {
        fill: none;
      }

      .st3, .st4, .st5 {
        stroke: #231f20;
        stroke-miterlimit: 10;
      }

      .st4 {
        fill: #231f20;
      }

      .st5 {
        fill: #fff;
      }

      .st2 {
        fill: #006838;
        font-size: 308.47px;
      }
    </style>
  </defs>
  <g>
    <g>
      <ellipse class="st5" cx="362.81" cy="265.76" rx="117.55" ry="108.87"/>
      <ellipse class="st4" cx="361.36" cy="265.76" rx="18.63" ry="17.25"/>
    </g>
    <line class="st3" x1="361.36" y1="248.51" x2="362.81" y2="156.9"/>
    <line class="st3" x1="371.18" y1="254.96" x2="435.15" y2="179.01"/>
    <line class="st3" x1="379.98" y1="265.76" x2="480.37" y2="265.76"/>
    <line class="st3" x1="373.98" y1="276.57" x2="447.52" y2="344.68"/>
    <line class="st3" x1="362.81" y1="374.63" x2="364.27" y2="283.01"/>
    <line class="st3" x1="245.26" y1="265.76" x2="345.64" y2="265.76"/>
    <line class="st3" x1="280.17" y1="189.69" x2="353.72" y2="257.81"/>
    <line class="st3" x1="291.4" y1="349.67" x2="355.37" y2="273.72"/>
  </g>
  <g class="st1">
    <text class="st2" transform="translate(113.44 410.03) rotate(-15.92) scale(1.39 1)"><tspan x="0" y="0">G</tspan></text>
  </g>
  <g class="st1">
    <text class="st0" transform="translate(212.61 383.15) rotate(18.23)"><tspan x="0" y="0">b</tspan></text>
  </g>
  <g class="st1">
    <text class="st0" transform="translate(282.45 399.64) rotate(-8.59)"><tspan x="0" y="0">I</tspan></text>
  </g>
  <g class="st1">
    <text class="st0" transform="translate(302.59 393.76) rotate(3.37)"><tspan x="0" y="0">k</tspan></text>
  </g>
  <g class="st1">
    <text class="st0" transform="translate(361.33 393.69) rotate(-4.14)"><tspan x="0" y="0">e</tspan></text>
  </g>
</svg>